<?xml version="1.0" encoding="UTF-8" standalone="no"?><svg xmlns="http://www.w3.org/2000/svg" xmlns:xlink="http://www.w3.org/1999/xlink" fill="#000000" height="515.4" preserveAspectRatio="xMidYMid meet" version="1" viewBox="0.0 0.0 315.8 515.4" width="315.8" zoomAndPan="magnify"><g><g id="change1_1"><path d="M111.51,239.86c-3.16,0-6.3-0.96-9.01-2.86c-4.93-3.46-7.42-9.3-6.5-15.26l6.93-44.94 c0.04-0.23-0.04-0.46-0.21-0.62l-33.09-31.19c-4.38-4.13-6.01-10.27-4.24-16.03c1.76-5.76,6.55-9.94,12.5-10.9l44.88-7.29 c0.23-0.04,0.43-0.19,0.53-0.4l19.44-41.11c2.57-5.44,7.92-8.89,13.94-8.99c6.02-0.13,11.47,3.16,14.23,8.52l20.81,40.43 c0.11,0.21,0.31,0.35,0.54,0.38l45.1,5.78c5.97,0.77,10.9,4.78,12.86,10.48s0.54,11.89-3.7,16.17l-32.03,32.28 c-0.16,0.17-0.24,0.4-0.19,0.63l8.44,44.68c1.12,5.92-1.18,11.84-5.99,15.47s-11.14,4.19-16.52,1.47l-40.6-20.48 c-0.21-0.11-0.46-0.1-0.66,0.01l-39.89,21.83C116.69,239.22,114.1,239.86,111.51,239.86z M156.94,75.27c-0.01,0-0.01,0-0.02,0 c-0.44,0.01-0.56,0.27-0.63,0.4l-19.44,41.11c-2.21,4.67-6.58,7.96-11.68,8.79l-44.88,7.29c-0.15,0.02-0.43,0.07-0.56,0.49 s0.08,0.62,0.19,0.72l33.09,31.19c3.76,3.55,5.54,8.72,4.75,13.83l-6.93,44.94c-0.02,0.15-0.07,0.44,0.29,0.69 c0.36,0.25,0.61,0.12,0.75,0.04l39.89-21.83c4.54-2.48,10-2.57,14.62-0.24l40.6,20.48c0.14,0.07,0.39,0.2,0.74-0.07 c0.35-0.26,0.3-0.55,0.27-0.7l-8.44-44.68c-0.96-5.08,0.64-10.31,4.28-13.98l32.03-32.28c0.11-0.11,0.31-0.31,0.17-0.73 c-0.14-0.42-0.43-0.45-0.58-0.47l-45.1-5.78c-5.13-0.66-9.6-3.8-11.97-8.39l-20.8-40.43C157.5,75.52,157.37,75.27,156.94,75.27z" fill="#ffffff"/></g><g id="change1_3"><path d="M157.88,315.76C70.82,315.76,0,244.93,0,157.88S70.82,0,157.88,0c87.05,0,157.88,70.82,157.88,157.88 S244.93,315.76,157.88,315.76z M157.88,15C79.1,15,15,79.1,15,157.88s64.1,142.88,142.88,142.88s142.88-64.1,142.88-142.88 S236.66,15,157.88,15z" fill="#ffffff"/></g><g id="change1_2"><path d="M220.06,515c-1.33,0-2.66-0.35-3.85-1.06l-58.33-34.86l-58.33,34.86c-2.32,1.39-5.2,1.42-7.55,0.09 c-2.35-1.33-3.8-3.82-3.8-6.52V295.86c0-4.14,3.36-7.5,7.5-7.5s7.5,3.36,7.5,7.5v198.42l50.83-30.38c2.37-1.42,5.33-1.42,7.7,0 l50.83,30.38V295.86c0-4.14,3.36-7.5,7.5-7.5s7.5,3.36,7.5,7.5V507.5c0,2.7-1.45,5.19-3.8,6.52 C222.61,514.67,221.34,515,220.06,515z" fill="#ffffff"/></g></g></svg>