<?xml version="1.0" encoding="UTF-8" standalone="no"?><svg xmlns="http://www.w3.org/2000/svg" xmlns:xlink="http://www.w3.org/1999/xlink" fill="#ffffff" height="3467.4" preserveAspectRatio="xMidYMid meet" version="1" viewBox="404.1 268.1 3185.7 3467.4" width="3185.7" zoomAndPan="magnify"><g><g><g><g id="change1_1"><path d="M1480.99,728.3l260.1,188.97l-99.35,305.76c-8.27,25.46,0.79,53.36,22.45,69.09c21.66,15.74,50.99,15.74,72.65,0 l260.1-188.97l260.1,188.97c10.83,7.87,23.58,11.8,36.32,11.8c12.75,0,25.49-3.93,36.32-11.8 c21.66-15.74,30.72-43.63,22.45-69.09l-99.35-305.76l260.1-188.97c21.66-15.74,30.72-43.63,22.45-69.09 c-8.27-25.46-32-42.7-58.77-42.7h-321.5l-99.35-305.76c-8.27-25.46-32-42.7-58.77-42.7c-26.77,0-50.5,17.24-58.77,42.7 l-99.35,305.76h-321.5c-26.77,0-50.5,17.24-58.77,42.7C1450.26,684.67,1459.33,712.56,1480.99,728.3z M1883.71,740.1 c26.77,0,50.5-17.24,58.77-42.7l54.45-167.58l54.45,167.58c8.27,25.46,32,42.7,58.77,42.7h176.2l-142.55,103.57 c-21.66,15.74-30.72,43.63-22.45,69.09l54.45,167.58l-142.55-103.57c-10.83-7.87-23.58-11.8-36.32-11.8s-25.49,3.93-36.32,11.8 l-142.55,103.57l54.45-167.58c8.27-25.46-0.79-53.36-22.45-69.09L1707.51,740.1H1883.71z"/></g><g id="change1_2"><path d="M2504.7,1051.58c-8.27,25.46,0.79,53.36,22.45,69.09l260.1,188.97l-99.35,305.76c-8.27,25.46,0.79,53.36,22.45,69.09 c21.66,15.74,50.99,15.74,72.65,0l260.1-188.97l260.1,188.97c10.83,7.87,23.58,11.8,36.32,11.8s25.49-3.93,36.32-11.8 c21.66-15.74,30.72-43.63,22.45-69.09l-99.35-305.76l260.1-188.97c21.66-15.74,30.72-43.63,22.45-69.09 c-8.27-25.46-32-42.7-58.77-42.7h-321.5l-99.35-305.76c-8.27-25.46-32-42.7-58.77-42.7c-26.77,0-50.5,17.24-58.77,42.7 l-99.35,305.76h-321.5C2536.7,1008.88,2512.97,1026.12,2504.7,1051.58z M2929.87,1132.48c26.77,0,50.5-17.24,58.77-42.7 l54.45-167.58l54.45,167.58c8.27,25.46,32,42.7,58.77,42.7h176.2l-142.55,103.57c-21.66,15.74-30.72,43.63-22.45,69.09 l54.45,167.58l-142.55-103.57c-10.83-7.87-23.58-11.8-36.32-11.8c-12.75,0-25.49,3.93-36.32,11.8l-142.55,103.57l54.45-167.58 c8.27-25.46-0.79-53.36-22.45-69.09l-142.55-103.57H2929.87z"/></g><g id="change1_3"><path d="M1210.87,1684.5c10.83,7.87,23.58,11.8,36.32,11.8s25.49-3.93,36.32-11.8c21.66-15.74,30.72-43.63,22.45-69.09 l-99.35-305.76l260.1-188.97c21.66-15.74,30.72-43.63,22.45-69.09c-8.27-25.46-32-42.7-58.77-42.7h-321.5l-99.35-305.76 c-8.27-25.46-32-42.7-58.77-42.7s-50.5,17.24-58.77,42.7l-99.35,305.76h-321.5c-26.77,0-50.5,17.24-58.77,42.7 c-8.27,25.46,0.79,53.36,22.45,69.09l260.1,188.97l-99.35,305.76c-8.27,25.46,0.79,53.36,22.45,69.09 c21.66,15.74,50.99,15.74,72.65,0l260.1-188.97L1210.87,1684.5z M771.9,1472.71l54.45-167.58c8.27-25.46-0.79-53.36-22.45-69.09 l-142.55-103.57h176.2c26.77,0,50.5-17.24,58.77-42.7l54.45-167.58l54.45,167.58c8.27,25.46,32,42.7,58.77,42.7h176.2 l-142.55,103.57c-21.66,15.74-30.72,43.63-22.45,69.09l54.45,167.58L987.1,1369.15c-10.83-7.87-23.58-11.8-36.32-11.8 s-25.49,3.93-36.32,11.8L771.9,1472.71z"/></g><path d="M2605.23,2745.74c-71.92-57.19-151.14-103.76-235.67-138.61c-39.24,28.32-81.52,52.16-126.49,71.18 c-79.94,33.81-164.81,50.96-252.27,50.96s-172.33-17.14-252.27-50.96c-43.26-18.3-84.03-41.02-122-67.93 c-81.66,34.5-158.28,79.98-228.02,135.45c-75.31,59.9-141.27,130.34-196.06,209.36c-113.64,163.9-173.7,356.38-173.7,556.63v1.56 c0,47.49,38.63,86.12,86.12,86.12H2889c47.49,0,86.12-38.63,86.12-86.12v-1.56c0-200.28-60.09-392.79-173.76-556.71 C2746.55,2876.09,2680.57,2805.65,2605.23,2745.74z" fill="none"/><path d="M1990.8,2593.31c136.78,0,265.38-53.27,362.1-149.99c96.72-96.72,149.99-225.32,149.99-362.1 c0-136.78-53.27-265.38-149.99-362.1c-96.72-96.72-225.32-149.99-362.1-149.99s-265.38,53.27-362.1,149.99 c-96.72,96.72-149.99,225.32-149.99,362.1c0,136.78,53.27,265.38,149.99,362.1C1725.42,2540.05,1854.02,2593.31,1990.8,2593.31z" fill="none"/><g id="change1_4"><path d="M2913.08,2877.64c-15.1-21.77-30.96-42.96-47.52-63.56l-115.68-123.44c-19.38-17.77-39.38-34.9-60.02-51.31 c-65.31-51.93-135.92-96.18-210.68-132.12c45.31-51.84,81.81-110.09,108.72-173.71c33.81-79.94,50.95-164.81,50.95-252.27 c0-87.46-17.14-172.33-50.95-252.27c-32.64-77.18-79.36-146.47-138.85-205.97c-59.49-59.49-128.79-106.21-205.97-138.85 c-79.94-33.81-164.81-50.95-252.27-50.95s-172.33,17.14-252.27,50.95c-77.18,32.64-146.47,79.36-205.97,138.85 c-59.49,59.49-106.21,128.79-138.85,205.97c-33.81,79.94-50.95,164.81-50.95,252.27c0,87.46,17.14,172.33,50.95,252.27 c27.64,65.35,65.41,125.02,112.44,177.9c-71.65,35.2-139.43,78.05-202.28,128.05c-85.71,68.18-160.79,148.35-223.15,238.3 C951.24,3064.5,882.8,3283.77,882.8,3511.83v1.56c0,122.46,99.62,222.08,222.08,222.08H2889c122.45,0,222.08-99.62,222.08-222.08 v-1.56c0-61.26-4.95-121.89-14.68-181.42l-25.98-118.04c-13.28-47.75-29.76-94.54-49.36-140.13l-62.17-122.89 C2944.58,2924.97,2929.31,2901.05,2913.08,2877.64z M1478.72,2081.23c0-136.78,53.27-265.38,149.99-362.1 c96.72-96.72,225.32-149.99,362.1-149.99s265.38,53.27,362.1,149.99c96.72,96.72,149.99,225.32,149.99,362.1 c0,136.78-53.27,265.38-149.99,362.1c-96.72,96.72-225.32,149.99-362.1,149.99s-265.38-53.27-362.1-149.99 C1531.98,2346.61,1478.72,2218.01,1478.72,2081.23z M2975.11,3513.39c0,47.49-38.63,86.12-86.12,86.12H1104.87 c-47.49,0-86.12-38.63-86.12-86.12v-1.56c0-200.24,60.06-392.72,173.7-556.63c54.78-79.02,120.75-149.46,196.06-209.36 c69.74-55.47,146.36-100.95,228.02-135.45c37.97,26.91,78.74,49.63,122,67.93c79.94,33.81,164.81,50.96,252.27,50.96 s172.33-17.14,252.27-50.96c44.97-19.02,87.25-42.86,126.49-71.18c84.53,34.85,163.75,81.42,235.67,138.61 c75.33,59.9,141.32,130.35,196.12,209.37c113.68,163.92,173.76,356.43,173.76,556.71V3513.39z"/></g></g><g id="change2_1"><path d="M2301.56,2892.32c-40.81-40.74-95.01-63.17-152.62-63.17c-57.4,0-111.36,22.22-152.04,62.59 c-40.74-40.37-94.68-62.59-152.03-62.59c-57.64,0-111.83,22.44-152.57,63.18c-40.75,40.75-63.19,94.93-63.19,152.57 c0,57.68,22.44,111.89,63.19,152.64l261.96,261.96c11.21,11.21,26.75,17.63,42.65,17.63s31.44-6.43,42.65-17.63l262.02-261.96 c40.75-40.75,63.19-94.93,63.19-152.57C2364.76,2987.28,2342.32,2933.07,2301.56,2892.32z M2244.26,3044.9 c0,25.42-9.92,49.33-27.92,67.34l-219.37,219.37l-219.39-219.39c-17.99-17.94-27.9-41.84-27.9-67.32 c0-25.42,9.92-49.33,27.92-67.34c18-18,41.92-27.92,67.34-27.92c25.39,0,49.37,9.93,67.47,27.92l41.98,41.98 c11.21,11.21,26.75,17.63,42.65,17.63s31.44-6.43,42.65-17.63l42-42c17.94-17.99,41.85-27.9,67.32-27.9 c25.42,0,49.33,9.92,67.36,27.94C2234.35,2995.51,2244.26,3019.42,2244.26,3044.9z" fill="#ffffff"/></g></g></g></svg>