<?xml version="1.0" encoding="UTF-8" standalone="no"?><svg xmlns="http://www.w3.org/2000/svg" xmlns:xlink="http://www.w3.org/1999/xlink" fill="#ffffff" height="378.7" preserveAspectRatio="xMidYMid meet" version="1" viewBox="0.0 0.0 400.0 378.7" width="400" zoomAndPan="magnify"><g id="change1_1"><path d="M369.07,287.68c-19.08-19.08-45.42-30.93-74.38-30.93h-36.42c0.01-0.48,0.04-0.96,0.04-1.44v-17.48 c1.58-1.37,3.11-2.8,4.59-4.28c4.5-4.5,8.53-9.49,12-14.86c18.23-2.09,32.47-8.45,36.11-25.38c5.79-1.14,10.97-4,14.99-8.02 c5.29-5.29,8.58-12.6,8.58-20.63v-32.37c0-8.04-3.29-15.34-8.58-20.63l-0.41-0.38c-3.49-3.36-7.8-5.85-12.58-7.17 c0.01-0.12,0.02-0.23,0.02-0.35c0-28.61-12.45-54.59-32.51-73.41C260.55,11.62,233.06,0,202.85,0h-5.69 c-30.21,0-57.7,11.62-77.66,30.35c-20.06,18.82-32.51,44.8-32.51,73.41c0,0.12,0.01,0.23,0.02,0.35c-4.95,1.36-9.4,3.99-12.96,7.54 l-0.03,0.03c-5.29,5.3-8.58,12.6-8.58,20.61v32.37c0,7.82,3.13,14.95,8.2,20.22l0.38,0.41c5.29,5.29,12.59,8.58,20.63,8.58 c6.76,0,12.99-2.33,17.95-6.21c3.46,17.71,12.2,33.59,24.51,45.9c2.31,2.31,4.74,4.48,7.29,6.53v15.24l0,0 c0,0.48,0.02,0.96,0.04,1.44h-39.12c-28.97,0-55.3,11.85-74.38,30.93C11.85,306.76,0,333.1,0,362.06v10.18 c0,3.56,2.89,6.45,6.45,6.45H200c0,0,0,0,0,0s0,0,0,0h193.55c3.56,0,6.45-2.89,6.45-6.45v-10.18 C400,333.1,388.15,306.76,369.07,287.68z M282.53,203.98c2.12-5.22,3.77-10.69,4.87-16.34c2.97,2.33,6.41,4.1,10.14,5.14 C295.09,198.47,289.72,201.93,282.53,203.98z M316.86,120.77c2.96,2.96,4.8,7.03,4.8,11.51v32.37c0,4.48-1.84,8.56-4.8,11.51 c-2.96,2.96-7.04,4.8-11.52,4.8c-4.48,0-8.56-1.84-11.51-4.8h-0.03c-2.94-2.94-4.77-7.02-4.77-11.51v-32.37 c0-4.5,1.83-8.57,4.77-11.51l0.03-0.03c2.94-2.94,7.02-4.77,11.52-4.77v0c4.35,0,8.32,1.71,11.23,4.49L316.86,120.77z M128.31,39.72 c17.64-16.55,42-26.82,68.84-26.82h5.69c26.83,0,51.2,10.27,68.84,26.82c17.49,16.41,28.37,39.01,28.42,63.84 c-4.2,0.77-8.09,2.45-11.47,4.83c-2-21.16-11.48-40.23-25.75-54.5c-16.13-16.13-38.4-26.15-62.89-26.15s-46.76,10.02-62.89,26.15 c-14.27,14.27-23.75,33.34-25.75,54.5c-3.38-2.38-7.27-4.06-11.47-4.83C99.95,78.73,110.82,56.13,128.31,39.72z M275.55,107.51 c-15.2-0.06-29.8-2.01-43.77-5.83c-16-4.38-31.27-11.26-45.79-20.63c-2.49-1.6-5.86-1.31-8.03,0.88 c-6.43,6.44-14.68,11.81-24.76,16.1c-8.3,3.53-17.85,6.31-28.6,8.37c2.32-16.81,10.16-31.92,21.64-43.4 c13.8-13.8,32.84-22.37,53.77-22.37c20.93,0,39.97,8.57,53.77,22.37C265.5,74.73,273.43,90.26,275.55,107.51z M94.65,180.96 c-4.48,0-8.56-1.84-11.51-4.8l-0.3-0.28c-2.78-2.92-4.49-6.88-4.49-11.23v-32.37c0-4.5,1.83-8.57,4.77-11.51l0.03-0.03 c2.94-2.94,7.02-4.77,11.52-4.77h0c4.5,0,8.57,1.83,11.51,4.77v0.03c2.96,2.96,4.8,7.03,4.8,11.51v32.37c0,4.48-1.84,8.56-4.8,11.51 C103.21,179.12,99.13,180.96,94.65,180.96z M123.86,170.66v-51.02c12.93-2.27,24.39-5.52,34.36-9.77 c9.76-4.15,18.11-9.27,25.06-15.33c14.31,8.7,29.35,15.22,45.12,19.53c15.28,4.18,31.19,6.28,47.74,6.29v50.29 c0,12.89-3.26,25.05-8.97,35.72c-9.91,0.66-21.16,0.25-32.23-0.17l-2.26-0.08c-1.01-3.31-2.79-6.28-5.13-8.68 c-3.79-3.88-9.03-6.29-14.79-6.29s-11,2.4-14.79,6.29c-3.74,3.83-6.06,9.11-6.06,14.92s2.32,11.09,6.06,14.92 c3.79,3.88,9.03,6.29,14.79,6.29s11-2.4,14.79-6.29c2.25-2.31,3.97-5.14,5-8.29l1.94,0.07c7.96,0.3,15.99,0.6,23.71,0.54 c-1.41,1.67-2.88,3.29-4.42,4.84c-13.8,13.8-32.84,22.37-53.77,22.37c-12.71,0-24.71-3.17-35.27-8.74c-3.5-1.9-6.83-4.08-9.95-6.5 c-0.42-0.32-0.87-0.58-1.33-0.79c-2.53-1.97-4.95-4.08-7.22-6.34C132.43,210.63,123.86,191.59,123.86,170.66z M220.7,212.36 c0,2.34-0.91,4.45-2.38,5.95c-1.42,1.46-3.4,2.36-5.58,2.36s-4.16-0.9-5.58-2.36c-1.47-1.5-2.38-3.61-2.38-5.95 c0-2.34,0.91-4.45,2.38-5.95c1.42-1.46,3.4-2.36,5.58-2.36s4.16,0.9,5.58,2.36C219.79,207.91,220.7,210.02,220.7,212.36z M163.53,251.84c2.62,1.21,5.3,2.31,8.05,3.25c8.2,2.82,16.96,4.4,26.04,4.57c0.09,0,0.18,0,0.27,0.01 c0.43,0.01,0.85,0.03,1.28,0.03h4.34c9.63,0,18.92-1.62,27.6-4.6c4.97-1.71,9.75-3.88,14.28-6.45v6.66 c0,11.74-4.81,22.41-12.55,30.15c-7.74,7.74-18.42,12.55-30.15,12.55H200c-11.74,0-22.41-4.81-30.15-12.55 c-7.74-7.74-12.55-18.42-12.55-30.15v-6.59C159.33,249.83,161.41,250.88,163.53,251.84z M12.9,362.06 c0-25.41,10.4-48.51,27.15-65.27c16.75-16.75,39.86-27.15,65.27-27.15h40.98c2.57,9.56,7.62,18.12,14.43,24.93 c8.63,8.63,20.09,14.45,32.82,15.94v55.27H12.9V362.06z M387.1,365.79H206.45v-55.02c13.81-0.93,26.28-6.94,35.52-16.19 c6.81-6.81,11.86-15.38,14.43-24.93h38.28c25.41,0,48.51,10.4,65.26,27.15c16.75,16.75,27.15,39.86,27.15,65.27V365.79z"/></g></svg>