<?xml version="1.0" encoding="UTF-8" standalone="no"?><svg xmlns="http://www.w3.org/2000/svg" xmlns:xlink="http://www.w3.org/1999/xlink" fill="#ffffff" height="81.6" preserveAspectRatio="xMidYMid meet" version="1" viewBox="4.2 6.1 85.4 81.6" width="85.4" zoomAndPan="magnify"><g data-name="Layer 5" id="change1_1"><rect fill="inherit" height="30.2" rx="1.25" ry="1.25" width="12.38" x="40.52" y="49.81"/><rect fill="inherit" height="46.93" rx="1.25" ry="1.25" width="12.38" x="75.44" y="33.08"/><rect fill="inherit" height="20.72" rx="1.25" ry="1.25" width="12.38" x="57.98" y="59.28"/><rect fill="inherit" height="9.71" rx="1.25" ry="1.25" width="12.38" x="23.06" y="70.29"/><path d="M18.79,50.78a1.25,1.25,0,0,0,.92-.4L36.2,32.58l9.56,11a1.27,1.27,0,0,0,.92.43,1.35,1.35,0,0,0,.93-.38L75.25,15V25.64a1.25,1.25,0,0,0,2.5,0V12.13a1.25,1.25,0,0,0-1.25-1.25H63a1.25,1.25,0,0,0,0,2.5H73.31L46.75,40.89l-9.58-11a1.28,1.28,0,0,0-.93-.43,1.08,1.08,0,0,0-.93.4L17.87,48.68a1.25,1.25,0,0,0,.92,2.1Z" fill="inherit"/><path d="M88.41,85.18H6.74V80.29H12.3a1.25,1.25,0,0,0,0-2.5H6.74V67H12.3a1.25,1.25,0,0,0,0-2.5H6.74V53.65H12.3a1.25,1.25,0,1,0,0-2.5H6.74V40.32H12.3a1.25,1.25,0,1,0,0-2.5H6.74V27H12.3a1.25,1.25,0,0,0,0-2.5H6.74V13.68H12.3a1.25,1.25,0,0,0,0-2.5H6.74V7.37a1.25,1.25,0,1,0-2.5,0V86.43a1.25,1.25,0,0,0,1.25,1.25H88.41a1.25,1.25,0,0,0,0-2.5Z" fill="inherit"/></g></svg>