<?xml version="1.0" encoding="UTF-8" standalone="no"?><svg xmlns="http://www.w3.org/2000/svg" xmlns:xlink="http://www.w3.org/1999/xlink" fill="#ffffff" height="1585.3" preserveAspectRatio="xMidYMid meet" version="1" viewBox="343.9 456.7 1806.1 1585.3" width="1806.1" zoomAndPan="magnify"><g id="change1_1"><path d="M755.49219 1097L1592 678.74609 1528.50781 647 692 1065.25391z"/><path d="M369.89844,904.20312L611.49219,1025L1448,606.74609l-289.89844-144.94922c-10.125-5.0625-22.07812-5.0625-32.20312,0 c0,0-753.66431,376.83105-755.99561,377.9978C343.93115,852.78052,344.06079,891.24585,369.89844,904.20312z"/><path d="M1914.10156,839.79688L1672.50781,719L836,1137.25391l289.89844,144.94922c10.16675,5.08228,22.03857,5.08228,32.20312,0 c0,0,754.48169-377.24194,755.9978-378C1940.21606,891.14478,1940.10181,852.83325,1914.10156,839.79688z"/><path d="M1826,1322c37.43921,0,73.79956,5.04053,108,15.11938V974.59912c0,0-751.89771,374.89307-756,376.36963v677.1709 l288.36035-144.18018C1442.95947,1833.55859,1430,1777.39868,1430,1718C1430,1499.47974,1607.47974,1322,1826,1322z"/><path d="M1826,1394c-178.64209,0-324,145.35571-324,324c0,178.64209,145.35791,324,324,324s324-145.35791,324-324 C2150,1539.35571,2004.64209,1394,1826,1394z M1995.45312,1647.50293l-191.98828,192.02344 c-13.88672,13.88892-37.00415,13.9043-50.90625,0c-0.0835-0.0813-96.01172-96.01172-96.01172-96.01172 c-14.0625-14.0625-14.0625-36.84375,0-50.90625s36.84375-14.0625,50.90625,0l70.55859,70.55859l166.53516-166.57031 c14.0625-14.0625,36.84375-14.0625,50.90625,0S2009.51562,1633.44043,1995.45312,1647.50293z"/><path d="M350,1628c0,13.68018,7.56079,25.91895,19.79956,32.04053L1106,2028.13965v-677.1709 c-4.10229-1.47656-756-376.36963-756-376.36963V1628z M497.79688,1377.89844c8.92969-17.78906,30.51562-24.92578,48.30469-16.10156 l144,72c17.78906,8.89453,24.99609,30.51562,16.10156,48.30469c-9.07031,18.09009-31.54834,24.47974-48.30469,16.10156 c-0.07031-0.03516-144-72-144-72C496.10938,1417.30859,488.90234,1395.6875,497.79688,1377.89844z M497.79688,1521.89844 c8.92969-17.78906,30.51562-24.92578,48.30469-16.10156l216,108c17.78906,8.89453,24.99609,30.51562,16.10156,48.30469 c-9.07251,18.09448-31.55273,24.47754-48.30469,16.10156c-0.22192-0.11206-216-108-216-108 C496.10938,1561.30859,488.90234,1539.6875,497.79688,1521.89844z"/></g></svg>