<?xml version="1.0" encoding="UTF-8" standalone="no"?><svg xmlns="http://www.w3.org/2000/svg" xmlns:xlink="http://www.w3.org/1999/xlink" fill="#ffffff" height="14" preserveAspectRatio="xMidYMid meet" version="1" viewBox="0.0 7.0 24.0 14.0" width="24" zoomAndPan="magnify"><g id="change1_1"><path d="m6.5 19h-2c-.276 0-.5-.224-.5-.5s.224-.5.5-.5h2c.276 0 .5.224.5.5s-.224.5-.5.5z"/></g><g id="change1_2"><path d="m22.75 19h-1.25c-.276 0-.5-.224-.5-.5s.224-.5.5-.5h.835l.674-3.592c-.009-1.838-1.579-3.408-3.509-3.408h-3.283l-1.591 7h2.874c.276 0 .5.224.5.5s-.224.5-.5.5h-3.5c-.152 0-.296-.069-.391-.188-.095-.118-.131-.274-.097-.422l1.818-8c.052-.229.254-.39.488-.39h3.682c2.481 0 4.5 2.019 4.5 4.5l-.759 4.092c-.044.237-.25.408-.491.408z"/></g><g id="change1_3"><path d="m19.5 21c-1.378 0-2.5-1.121-2.5-2.5s1.122-2.5 2.5-2.5 2.5 1.121 2.5 2.5-1.122 2.5-2.5 2.5zm0-4c-.827 0-1.5.673-1.5 1.5s.673 1.5 1.5 1.5 1.5-.673 1.5-1.5-.673-1.5-1.5-1.5z"/></g><g id="change1_4"><path d="m8.5 21c-1.378 0-2.5-1.121-2.5-2.5s1.122-2.5 2.5-2.5 2.5 1.121 2.5 2.5-1.122 2.5-2.5 2.5zm0-4c-.827 0-1.5.673-1.5 1.5s.673 1.5 1.5 1.5 1.5-.673 1.5-1.5-.673-1.5-1.5-1.5z"/></g><g id="change1_5"><path d="m6.5 10h-4c-.276 0-.5-.224-.5-.5s.224-.5.5-.5h4c.276 0 .5.224.5.5s-.224.5-.5.5z"/></g><g id="change1_6"><path d="m6.5 13h-5c-.276 0-.5-.224-.5-.5s.224-.5.5-.5h5c.276 0 .5.224.5.5s-.224.5-.5.5z"/></g><g id="change1_7"><path d="m6.5 16h-6c-.276 0-.5-.224-.5-.5s.224-.5.5-.5h6c.276 0 .5.224.5.5s-.224.5-.5.5z"/></g><g id="change1_8"><path d="m14 19h-3.5c-.276 0-.5-.224-.5-.5s.224-.5.5-.5h3.101l2.272-10h-11.373c-.276 0-.5-.224-.5-.5s.224-.5.5-.5h12c.152 0 .296.069.391.188.095.118.131.274.097.422l-2.5 11c-.052.229-.255.39-.488.39z"/></g></svg>