<?xml version="1.0" encoding="UTF-8" standalone="no"?><svg xmlns="http://www.w3.org/2000/svg" xmlns:xlink="http://www.w3.org/1999/xlink" fill="#000000" height="475.5" preserveAspectRatio="xMidYMid meet" version="1" viewBox="0.0 0.0 446.8 475.5" width="446.8" zoomAndPan="magnify"><g><g id="change1_2"><path d="M386.86,295.88H135.84c-3.39,0-6.36-2.28-7.24-5.55L71.57,78.29c-0.03-0.11-0.06-0.22-0.09-0.33 l-9.97-37.06H20.45C9.17,40.89,0,31.72,0,20.45S9.17,0,20.45,0H60.3c3.39,0,6.36,2.28,7.24,5.55l6.92,25.73 c0.03,0.1,0.06,0.21,0.08,0.31l10.14,37.69l355.1,39.82c2.21,0.25,4.2,1.47,5.43,3.33s1.56,4.17,0.91,6.3l-52.09,171.82 C393.08,293.72,390.16,295.88,386.86,295.88z M141.59,280.88H381.3l47.86-157.87L88.87,84.85L141.59,280.88z M20.45,15 c-3,0-5.45,2.44-5.45,5.45s2.44,5.45,5.45,5.45h37.04L54.55,15H20.45z" fill="#ffffff"/></g><g id="change1_3"><path d="M434.86,356.29H93.91c-2.79,0-5.35-1.55-6.65-4.02c-1.29-2.47-1.11-5.46,0.48-7.75l41.93-60.41 c2.36-3.4,7.04-4.25,10.44-1.88c3.4,2.36,4.25,7.04,1.88,10.44l-33.76,48.63h326.61c4.14,0,7.5,3.36,7.5,7.5 S439,356.29,434.86,356.29z" fill="#ffffff"/></g><g id="change1_1"><path d="M153.13,475.46c-30.14,0-54.66-24.52-54.66-54.66s24.52-54.66,54.66-54.66s54.66,24.52,54.66,54.66 S183.26,475.46,153.13,475.46z M153.13,381.15c-21.87,0-39.66,17.79-39.66,39.66c0,21.87,17.79,39.66,39.66,39.66 s39.66-17.79,39.66-39.66C192.78,398.94,174.99,381.15,153.13,381.15z" fill="#ffffff"/></g><g id="change1_4"><path d="M367.67,475.46c-30.14,0-54.66-24.52-54.66-54.66s24.52-54.66,54.66-54.66s54.66,24.52,54.66,54.66 S397.81,475.46,367.67,475.46z M367.67,381.15c-21.87,0-39.66,17.79-39.66,39.66c0,21.87,17.79,39.66,39.66,39.66 c21.87,0,39.66-17.79,39.66-39.66C407.33,398.94,389.54,381.15,367.67,381.15z" fill="#ffffff"/></g></g></svg>